<?xml version="1.0" standalone="no"?>
<!DOCTYPE svg PUBLIC "-//W3C//DTD SVG 20010904//EN"
 "http://www.w3.org/TR/2001/REC-SVG-20010904/DTD/svg10.dtd">
<svg version="1.0" xmlns="http://www.w3.org/2000/svg"
 width="1155.000000pt" height="1155.000000pt" viewBox="0 0 1155.000000 1155.000000"
 preserveAspectRatio="xMidYMid meet">
<metadata>
Created by potrace 1.11, written by Peter Selinger 2001-2013
</metadata>
<g transform="translate(0.000000,1155.000000) scale(0.100000,-0.100000)"
fill="#000000" stroke="none">
<path d="M5629 10527 c-80 -138 -196 -340 -259 -447 -115 -199 -122 -212 -189
-328 -130 -228 -182 -319 -190 -332 -6 -8 -56 -95 -113 -194 -132 -228 -106
-185 -410 -710 -144 -248 -279 -482 -301 -521 -22 -38 -79 -137 -127 -220 -48
-82 -98 -170 -112 -195 -33 -58 -166 -286 -189 -325 -11 -16 -22 -37 -26 -45
-4 -8 -26 -48 -50 -88 -24 -40 -43 -77 -43 -82 0 -6 -4 -10 -9 -10 -5 0 -14
-12 -20 -27 -6 -16 -20 -44 -32 -63 -21 -35 -457 -789 -742 -1285 -82 -143
-157 -271 -166 -285 -8 -14 -21 -34 -26 -45 -6 -11 -83 -144 -170 -295 -87
-151 -257 -446 -378 -655 -120 -209 -252 -436 -292 -505 -70 -120 -241 -417
-282 -490 -11 -19 -96 -165 -188 -325 -93 -159 -178 -307 -189 -327 -48 -85
-102 -177 -142 -245 -24 -40 -44 -77 -44 -83 0 -5 -4 -10 -10 -10 -5 0 -10 -4
-10 -10 0 -5 -24 -51 -54 -102 -29 -51 -153 -266 -276 -478 -122 -212 -231
-400 -242 -419 -60 -106 -295 -513 -319 -554 l-29 -47 1170 0 1170 0 1 23 c0
12 2 29 4 37 1 8 6 35 10 60 43 282 147 660 275 1000 100 266 289 641 448 890
127 199 347 505 419 585 10 11 40 47 67 80 170 210 467 515 721 740 49 44 95
85 101 90 6 6 33 28 59 50 27 22 53 45 59 50 6 6 31 26 56 45 25 19 47 37 50
40 14 17 377 289 467 350 12 8 77 53 145 99 114 78 445 291 453 291 2 0 39 22
82 48 43 27 99 61 125 75 26 15 83 46 125 70 339 192 792 417 1222 606 232
103 517 219 800 327 134 52 246 96 249 98 2 3 -16 40 -41 83 -24 43 -54 95
-65 115 -12 20 -32 54 -45 75 -13 21 -37 63 -54 93 -17 30 -97 170 -178 310
-81 140 -159 275 -173 300 -14 25 -73 126 -130 225 -194 332 -242 417 -242
426 0 5 -4 9 -10 9 -5 0 -10 4 -10 10 0 5 -22 47 -49 92 -27 46 -58 99 -68
118 -11 19 -62 107 -113 195 -51 88 -104 180 -118 205 -14 25 -45 78 -69 118
-24 41 -43 75 -43 77 0 1 -24 43 -54 92 -29 50 -68 116 -87 149 -29 53 -158
276 -504 874 -62 107 -122 211 -133 230 -11 19 -52 91 -92 160 -40 69 -82 143
-95 165 -60 105 -127 220 -129 222 -1 1 -68 -111 -147 -250z"/>
<path d="M10155 7303 c-38 -8 -74 -15 -80 -17 -5 -2 -23 -6 -40 -11 -16 -4
-64 -25 -105 -45 -117 -59 -185 -75 -315 -74 -56 0 -113 7 -150 18 -33 10 -61
18 -62 17 -2 0 -22 6 -45 15 -41 14 -43 14 -104 -17 -35 -17 -67 -36 -73 -42
-6 -8 14 -54 59 -140 l69 -128 -25 -10 c-14 -5 -31 -9 -38 -9 -7 0 -15 -3 -19
-6 -15 -15 90 -238 176 -373 l54 -83 36 31 36 32 12 -23 c7 -13 20 -37 29 -53
10 -17 34 -63 55 -104 21 -40 43 -75 49 -77 7 -3 42 12 78 32 l65 36 28 93
c60 203 146 309 349 426 118 69 292 264 311 349 4 17 11 32 16 35 12 8 12 62
-1 85 -25 47 -227 70 -365 43z"/>
<path d="M8345 6004 c-71 -41 -143 -81 -160 -89 -147 -73 -765 -491 -940 -637
-11 -9 -65 -54 -121 -100 -250 -206 -583 -534 -705 -693 -13 -16 -29 -34 -35
-40 -19 -16 -195 -253 -261 -350 -254 -379 -460 -859 -527 -1230 -3 -16 -8
-41 -11 -55 -3 -14 -7 -41 -10 -60 -7 -56 -17 -123 -21 -145 -7 -40 -18 -243
-17 -345 0 -327 64 -682 178 -995 58 -160 65 -177 147 -342 l70 -143 2809 0
2809 0 -14 23 c-7 12 -81 139 -164 282 -82 143 -159 276 -170 295 -11 19 -29
51 -40 70 -11 19 -125 217 -254 440 -129 223 -269 466 -312 540 -43 74 -82
142 -87 150 -22 37 -96 166 -102 180 -4 8 -16 29 -26 45 -10 17 -45 75 -76
130 -32 55 -65 114 -75 130 -24 41 -348 602 -370 640 -9 17 -117 203 -240 415
-122 212 -236 410 -253 440 -16 30 -38 67 -49 82 -10 14 -18 28 -18 31 0 3
-27 51 -60 107 -33 56 -60 103 -60 105 0 2 -17 32 -39 67 -30 50 -189 324
-329 569 -11 19 -35 61 -54 94 -19 33 -87 150 -150 259 -63 110 -119 201 -124
202 -5 2 -67 -31 -139 -72z"/>
</g>
</svg>
